# xmcd
#
# Track frame offsets:
#	150
#	12925
#	26447
#	40075
#	52807
#	66417
#	79437
#	93230
#	105867
#	119277
#	132027
#	145537
#	157307
#	168467
#	181695
#	194572
#	206377
#	218925
#	231330
#	243950
#	256822
#	269065
#	282215
#	295720
#	309602
#
# Disc length: 4308 seconds
#
# Revision: 1
# Processed by: cddbd v1.5PL3 Copyright (c) Steve Scherf et al.
# Submitted via: audiograbber 1.81.03
#
DISCID=6210d219
DTITLE=Big Bill Broonzy - Complete Recorded Works In Chronological Order Vol. 1
DTITLE=1
DYEAR=1940
DGENRE=Blues
TTITLE0=Rockin' Chair Blues
TTITLE1=Shine On, Shine On
TTITLE2=Green Grass Blues
TTITLE3=My Little Flower
TTITLE4=Sweet Honey Bee
TTITLE5=When I Been Drinking
TTITLE6=Key to the Highway
TTITLE7=Double Trouble
TTITLE8=Going Back to My Plow
TTITLE9=I'm Having so Much Trouble
TTITLE10=Wee Wee Hours
TTITLE11=Conversation with the Blues
TTITLE12=All by Myself
TTITLE13=Keep Your Hand on Your Heart
TTITLE14=Why Should I Spend My Money
TTITLE15=What's Wrong With Me
TTITLE16=I Feel so Good
TTITLE17=In the Army Now
TTITLE18=Bad Acting Woman
TTITLE19=Night Watchman Blues
TTITLE20=She's Gone With the Wind
TTITLE21=I'm Gonna Move to the Outskirts of Town
TTITLE22=Tell Me Baby
TTITLE23=Hard Hearted Woman
TTITLE24=I'm Woke Up Now
EXTD=DOCD-5133  17 December 1940 to 6 March 1942
EXTT0=
EXTT1=
EXTT2=
EXTT3=
EXTT4=
EXTT5=
EXTT6=
EXTT7=
EXTT8=
EXTT9=
EXTT10=
EXTT11=
EXTT12=
EXTT13=
EXTT14=
EXTT15=
EXTT16=
EXTT17=
EXTT18=
EXTT19=
EXTT20=
EXTT21=
EXTT22=
EXTT23=
EXTT24=
PLAYORDER=
